<svg width="164" height="27" viewBox="0 0 164 27" fill="none" xmlns="http://www.w3.org/2000/svg">
<path d="M38.0261 24.3378H38.9869V26.2288C38.4491 26.6192 37.805 26.8268 37.1455 26.8222C35.7165 26.8222 34.6613 25.8177 34.6613 24.4128C34.6613 23.008 35.7095 22.0035 37.1665 22.0035C37.522 21.9878 37.8766 22.0516 38.2055 22.1905C38.5344 22.3294 38.8297 22.5401 39.0708 22.8078L38.3929 23.4477C38.2452 23.2786 38.0635 23.1441 37.8603 23.0534C37.657 22.9627 37.4371 22.918 37.2154 22.9222C36.829 22.9222 36.4584 23.0792 36.1852 23.3588C35.9119 23.6383 35.7584 24.0175 35.7584 24.4128C35.7584 24.8082 35.9119 25.1873 36.1852 25.4669C36.4584 25.7465 36.829 25.9035 37.2154 25.9035C37.5014 25.9096 37.784 25.8407 38.0365 25.7033L38.0261 24.3378Z" fill="#696D80"/>
<path d="M48.9695 26.74L48.0925 25.4423H47.1246V26.74H46.0764V22.0928H48.0471C49.263 22.0928 50.0247 22.7399 50.0247 23.7837C50.0368 24.0977 49.9531 24.4077 49.7853 24.6709C49.6176 24.9341 49.374 25.1375 49.0883 25.2529L50.1086 26.7507L48.9695 26.74ZM47.9807 22.9615H47.1211V24.5844H47.9807C48.6236 24.5844 48.9485 24.277 48.9485 23.773C48.9485 23.2689 48.6236 22.9615 47.9807 22.9615Z" fill="#696D80"/>
<path d="M56.639 24.4128C56.639 23.0294 57.6873 22.0035 59.1303 22.0035C60.5734 22.0035 61.6216 23.0223 61.6216 24.4128C61.6216 25.8034 60.5734 26.8222 59.1303 26.8222C57.6873 26.8222 56.639 25.7962 56.639 24.4128ZM60.5559 24.4128C60.5504 24.1257 60.4621 23.8465 60.3022 23.6105C60.1422 23.3744 59.9177 23.192 59.6568 23.0859C59.3958 22.9799 59.1101 22.9551 58.8355 23.0145C58.5608 23.074 58.3094 23.2151 58.1128 23.4202C57.9162 23.6253 57.7832 23.8851 57.7304 24.1673C57.6776 24.4494 57.7075 24.7411 57.8161 25.006C57.9248 25.2708 58.1075 25.4969 58.3413 25.656C58.5751 25.815 58.8496 25.8999 59.1303 25.8999C59.3207 25.9035 59.5098 25.8672 59.686 25.7933C59.8622 25.7194 60.0218 25.6095 60.1549 25.4702C60.2881 25.331 60.392 25.1654 60.4604 24.9835C60.5287 24.8017 60.5601 24.6075 60.5524 24.4128H60.5559Z" fill="#696D80"/>
<path d="M68.4839 24.6917V22.0822H69.5321V24.6524C69.5321 25.5389 69.9095 25.9035 70.5454 25.9035C71.1813 25.9035 71.5587 25.5461 71.5587 24.6524V22.0822H72.6069V24.6917C72.6069 26.0608 71.8382 26.8365 70.5454 26.8365C69.2526 26.8365 68.4839 26.0608 68.4839 24.6917Z" fill="#696D80"/>
<path d="M83.6831 23.7551C83.6831 24.7918 82.9214 25.4388 81.7055 25.4388H80.79V26.7221H79.7418V22.075H81.7125C82.9249 22.0822 83.6831 22.7292 83.6831 23.7551ZM82.6174 23.7551C82.6174 23.2439 82.2925 22.9437 81.6496 22.9437H80.79V24.5773H81.6496C82.2925 24.5773 82.6174 24.277 82.6174 23.7551Z" fill="#696D80"/>
<path d="M98.5609 22.0822H99.6091V26.7293H98.5609V22.0822Z" fill="#696D80"/>
<path d="M110.958 22.0822V26.7293H110.091L107.82 23.9017V26.7293H106.772V22.0822H107.645L109.91 24.9098V22.0822H110.958Z" fill="#696D80"/>
<path d="M117.855 24.4128C117.855 23.008 118.903 22.0035 120.326 22.0035C120.678 21.9885 121.03 22.0549 121.354 22.1978C121.678 22.3408 121.967 22.5566 122.198 22.8292L121.521 23.4691C121.382 23.2961 121.207 23.1572 121.008 23.0625C120.81 22.9679 120.593 22.9199 120.374 22.9222C119.988 22.9222 119.617 23.0792 119.344 23.3588C119.071 23.6383 118.917 24.0175 118.917 24.4128C118.917 24.8082 119.071 25.1873 119.344 25.4669C119.617 25.7464 119.988 25.9035 120.374 25.9035C120.594 25.9064 120.811 25.8583 121.009 25.763C121.208 25.6676 121.383 25.5274 121.521 25.353L122.198 25.9929C121.967 26.2686 121.678 26.4869 121.352 26.6312C121.027 26.7755 120.673 26.8421 120.319 26.8258C118.907 26.8222 117.855 25.8141 117.855 24.4128Z" fill="#696D80"/>
<path d="M0 16.0302L1.70511 12.098C3.28434 13.0282 5.06831 13.5337 6.89032 13.5672C8.39277 13.5672 8.93086 13.2455 8.93086 12.6949C8.93086 10.6574 0.248079 12.2874 0.248079 6.29622C0.248079 3.31133 2.69393 0.876953 7.56467 0.876953C9.66112 0.876953 11.8519 1.33452 13.5046 2.27824L11.8799 6.20327C10.5342 5.45755 9.03515 5.0484 7.50528 5.00932C5.9574 5.00932 5.46474 5.46688 5.46474 6.02096C5.46474 7.95131 14.151 6.34269 14.151 12.266C14.151 15.2044 11.7052 17.6852 6.83441 17.6852C4.22084 17.6781 1.57233 17.0168 0 16.0302Z" fill="#696D80"/>
<path d="M28.7038 13.2312V17.3206H15.6429V1.23444H28.4103V5.33105H20.8491V7.21492H27.4879V11.1185H20.8491V13.2312H28.7038Z" fill="#696D80"/>
<path d="M37.3866 13.2741H35.9506V17.3206H30.6536V1.23444H38.2182C42.5928 1.23444 45.3776 3.57587 45.3776 7.31144C45.4169 8.35686 45.1575 9.39133 44.6313 10.2884C44.1051 11.1854 43.3348 11.9062 42.4146 12.3625L45.713 17.3206H40.0596L37.3866 13.2741ZM37.8793 5.40969H35.9506V9.18816H37.8793C39.3363 9.18816 40.0352 8.47322 40.0352 7.30429C40.0352 6.13536 39.3398 5.42399 37.8828 5.42399L37.8793 5.40969Z" fill="#696D80"/>
<path d="M60.3463 13.2312V17.3206H47.2854V1.23444H60.0562V5.33105H52.4916V7.21492H59.1303V11.1185H52.4916V13.2312H60.3463Z" fill="#696D80"/>
<path d="M77.7817 1.23444V17.3206H73.4281L67.4602 10.0139V17.3206H62.2994V1.23444H66.6531L72.6209 8.53399V1.23444H77.7817Z" fill="#696D80"/>
<path d="M80.252 1.23444H87.9948C93.2359 1.23444 96.8593 4.28724 96.8593 9.27038C96.8593 14.2535 93.2464 17.3206 87.9948 17.3206H80.252V1.23444ZM87.7712 13.081C89.9934 13.081 91.5204 11.7262 91.5204 9.27038C91.5204 6.81455 89.9934 5.45974 87.7712 5.45974H85.549V13.0917L87.7712 13.081Z" fill="#696D80"/>
<path d="M101.447 1.23444H106.744V17.3206H101.447V1.23444Z" fill="#696D80"/>
<path d="M123.935 7.31144C123.935 11.0327 121.14 13.3884 116.776 13.3884H114.508V17.3206H109.211V1.23444H116.776C121.15 1.23444 123.935 3.58659 123.935 7.31144ZM118.593 7.31144C118.593 6.13894 117.894 5.42757 116.437 5.42757H114.508V9.18816H116.437C117.897 9.18816 118.593 8.47679 118.593 7.31144Z" fill="#696D80"/>
<path d="M125.574 1.23444H130.871V17.3206H125.574V1.23444Z" fill="#696D80"/>
<path d="M136.748 5.44544H132.146V1.23444H146.646V5.44544H142.045V17.3206H136.748V5.44544Z" fill="#696D80"/>
<path d="M157.904 11.4831V17.3206H152.607V11.4152L146.685 1.23444H152.275L155.486 6.80026L158.711 1.23444H163.827L157.904 11.4831Z" fill="#696D80"/>
<path d="M100.07 9.28108C100.07 4.7841 97.1283 1.85999 92.6943 1.33093C95.7656 2.25321 97.904 5.1094 97.904 9.28108C97.904 13.4528 95.7691 16.3089 92.6943 17.2312C97.1353 16.7022 100.07 13.7781 100.07 9.28108Z" fill="#696D80"/>
</svg>
