<?xml version="1.0" standalone="no"?>
<!DOCTYPE svg PUBLIC "-//W3C//DTD SVG 20010904//EN"
 "http://www.w3.org/TR/2001/REC-SVG-20010904/DTD/svg10.dtd">
<svg version="1.0" xmlns="http://www.w3.org/2000/svg"
 width="1024.000000pt" height="1024.000000pt" viewBox="0 0 1024.000000 1024.000000"
 preserveAspectRatio="xMidYMid meet">
<metadata>
Created by potrace 1.14, written by Peter Selinger 2001-2017
</metadata>
<g transform="translate(0.000000,1024.000000) scale(0.100000,-0.100000)"
fill="#000000" stroke="none">
<path d="M4887 10234 c-1 -1 -83 -5 -182 -8 -99 -4 -198 -9 -220 -11 -22 -2
-74 -6 -115 -9 -106 -9 -168 -14 -220 -21 -25 -3 -64 -8 -87 -10 -92 -11 -129
-16 -143 -20 -8 -2 -35 -6 -60 -9 -25 -3 -56 -8 -70 -11 -13 -2 -42 -7 -65
-10 -85 -13 -327 -65 -475 -104 -1256 -325 -2149 -1024 -2528 -1977 -72 -180
-143 -430 -166 -586 -3 -21 -9 -55 -12 -75 -40 -245 -39 -652 1 -918 14 -89
17 -103 31 -170 8 -38 17 -80 20 -93 2 -12 20 -75 40 -140 95 -312 253 -599
463 -840 493 -566 1260 -944 2486 -1226 274 -63 329 -76 355 -80 14 -3 100
-21 191 -40 91 -19 176 -37 190 -40 27 -5 100 -21 139 -30 14 -3 50 -11 80
-17 209 -41 586 -136 735 -184 448 -146 646 -320 640 -565 -5 -164 -86 -279
-260 -364 -91 -45 -228 -88 -320 -101 -22 -3 -49 -7 -60 -10 -19 -4 -68 -10
-145 -20 -211 -25 -768 -25 -955 0 -16 2 -59 7 -94 10 -36 3 -79 8 -95 10 -17
2 -53 7 -81 10 -27 3 -88 12 -135 20 -47 8 -102 16 -123 19 -224 33 -686 150
-987 249 -157 52 -415 147 -451 167 -9 4 -56 25 -105 45 -189 78 -462 214
-637 317 l-48 28 -8 -23 c-5 -12 -73 -166 -151 -342 -78 -176 -149 -336 -157
-355 -8 -19 -28 -63 -44 -98 -16 -35 -29 -65 -29 -67 0 -2 -18 -43 -40 -90
-22 -47 -40 -88 -40 -89 0 -4 -232 -531 -265 -604 -14 -29 -25 -54 -25 -57 0
-2 -13 -32 -29 -67 -16 -35 -84 -187 -151 -338 l-121 -275 22 -15 c125 -86
487 -263 744 -365 66 -26 129 -51 140 -55 137 -58 586 -198 820 -257 33 -8 65
-16 70 -17 38 -10 73 -18 170 -41 61 -14 119 -27 130 -29 11 -2 54 -11 95 -20
41 -8 91 -18 110 -21 19 -3 53 -10 75 -15 22 -5 58 -11 80 -14 22 -4 47 -8 55
-11 8 -2 35 -6 60 -9 25 -3 54 -7 65 -10 21 -4 139 -21 215 -31 25 -4 56 -8
70 -10 14 -2 48 -7 75 -10 28 -2 66 -7 85 -9 19 -3 60 -7 90 -10 30 -3 75 -8
100 -11 117 -12 202 -18 395 -30 242 -15 809 -21 980 -11 33 2 107 7 165 10
112 7 140 10 350 31 50 5 91 10 160 20 14 2 45 7 70 10 226 31 607 109 755
155 17 6 61 19 98 30 99 29 104 33 80 57 -32 32 -119 147 -170 226 -149 228
-270 548 -303 800 -6 45 -13 97 -16 116 -7 52 -7 307 0 376 4 33 16 112 27
175 157 901 912 1592 1829 1677 134 12 378 6 466 -11 12 -2 37 -7 55 -10 19
-3 66 -12 104 -21 39 -8 80 -18 92 -20 12 -3 66 -21 120 -40 54 -20 105 -37
114 -39 9 -3 49 -20 89 -40 40 -20 74 -36 77 -36 5 0 -3 129 -12 195 -20 147
-31 209 -60 330 -79 331 -208 606 -409 875 -63 84 -278 311 -361 380 -410 343
-960 608 -1670 806 -88 24 -176 48 -195 54 -52 14 -146 38 -225 55 -38 9 -81
19 -95 22 -14 3 -30 7 -36 9 -7 1 -45 10 -85 19 -41 9 -85 19 -99 21 -14 3
-65 14 -115 24 -49 11 -102 21 -117 24 -15 3 -31 7 -36 9 -4 3 -28 8 -52 12
-25 4 -88 15 -140 26 -52 11 -108 22 -125 25 -16 3 -46 9 -65 14 -19 5 -48 11
-65 13 -16 3 -64 12 -105 21 -41 8 -86 17 -100 20 -188 34 -582 138 -730 193
-355 132 -509 289 -499 506 11 231 189 405 509 498 83 24 188 46 265 55 33 3
68 8 77 9 129 25 726 25 856 0 9 -1 53 -6 97 -9 44 -4 87 -9 95 -11 8 -2 35
-6 60 -9 25 -4 56 -8 70 -10 14 -3 41 -7 60 -10 136 -22 457 -93 565 -126 495
-151 798 -268 1174 -451 90 -44 164 -78 165 -77 3 4 68 161 276 663 88 215
165 399 170 410 12 26 256 615 282 680 11 28 26 65 34 83 31 70 43 101 78 187
20 50 41 99 46 110 28 62 100 241 100 250 0 5 -15 18 -33 29 -71 41 -309 157
-432 210 -71 31 -138 61 -147 66 -10 6 -22 10 -28 10 -6 0 -29 9 -53 19 -108
49 -579 204 -717 236 -8 2 -62 15 -120 30 -125 32 -116 30 -210 50 -99 22 -99
22 -220 45 -58 11 -116 22 -130 25 -14 3 -54 10 -90 16 -36 5 -78 12 -95 15
-16 3 -43 7 -60 9 -66 9 -131 18 -146 20 -9 2 -40 6 -70 9 -30 4 -70 9 -89 11
-78 11 -176 20 -315 30 -55 3 -120 8 -145 10 -121 11 -754 26 -763 19z"/>
<path d="M8045 3300 c-22 -5 -62 -11 -89 -14 -27 -4 -52 -9 -55 -11 -3 -1 -24
-6 -46 -9 -125 -20 -393 -137 -538 -235 -406 -274 -671 -708 -725 -1190 -12
-111 -5 -349 13 -446 9 -49 19 -103 22 -120 22 -123 131 -378 221 -516 129
-197 315 -380 517 -506 178 -112 450 -210 630 -228 39 -4 74 -9 78 -12 11 -7
281 -5 332 2 22 3 58 8 80 11 113 15 294 67 413 120 76 33 89 40 177 92 506
299 809 835 809 1427 -1 85 -13 255 -20 266 -2 4 -6 24 -10 45 -18 122 -88
318 -161 454 -42 78 -132 220 -157 246 -6 7 -38 43 -71 80 -51 60 -122 127
-215 205 -89 74 -282 184 -422 238 -89 35 -251 79 -323 87 -27 4 -54 9 -60 12
-14 9 -354 10 -400 2z"/>
</g>
</svg>
