<?xml version="1.0" standalone="no"?>
<!DOCTYPE svg PUBLIC "-//W3C//DTD SVG 20010904//EN"
 "http://www.w3.org/TR/2001/REC-SVG-20010904/DTD/svg10.dtd">
<svg version="1.0" xmlns="http://www.w3.org/2000/svg"
 width="3083.000000pt" height="3083.000000pt" viewBox="0 0 3083.000000 3083.000000"
 preserveAspectRatio="xMidYMid meet">
<metadata>
Created by potrace 1.14, written by Peter Selinger 2001-2017
</metadata>
<g transform="translate(0.000000,3083.000000) scale(0.100000,-0.100000)"
fill="#000000" stroke="none">
<path d="M22340 26783 c-324 -43 -401 -58 -660 -129 -132 -37 -422 -157 -625
-259 -323 -163 -658 -388 -929 -626 -23 -20 -84 -73 -136 -119 -145 -127 -559
-546 -711 -720 -239 -274 -478 -572 -684 -854 -44 -59 -100 -136 -125 -169
l-45 -61 -325 -82 c-668 -168 -1629 -423 -2520 -669 -212 -59 -407 -113 -435
-120 -172 -47 -993 -295 -1155 -349 -25 -8 -117 -38 -205 -66 -560 -180 -1342
-447 -1940 -663 -676 -244 -950 -344 -1285 -469 -118 -44 -262 -97 -320 -119
-58 -21 -190 -70 -295 -109 -104 -40 -212 -80 -240 -90 -60 -21 -129 -46 -595
-220 -195 -72 -497 -183 -670 -246 -421 -153 -414 -150 -505 -215 -77 -55 -87
-59 -245 -99 -91 -23 -172 -44 -180 -46 -8 -2 -51 -13 -95 -23 -44 -11 -172
-51 -285 -91 -754 -262 -1438 -478 -2190 -690 -217 -61 -410 -115 -427 -121
-99 -31 -693 -174 -905 -218 -213 -43 -497 -96 -633 -116 -22 -3 -98 -15 -170
-26 -173 -26 -176 -26 -280 -39 -117 -14 -137 -17 -215 -25 -36 -4 -76 -8 -90
-10 -145 -21 -743 -34 -910 -21 -30 3 -93 7 -140 11 -195 13 -404 39 -610 76
-247 45 -413 -8 -323 -103 15 -16 48 -40 73 -53 93 -47 587 -163 850 -200 63
-9 129 -18 145 -20 17 -2 57 -7 90 -10 33 -4 74 -8 90 -11 186 -25 939 -25
1210 1 22 2 85 7 140 10 55 3 109 8 120 10 11 2 56 7 100 10 44 3 91 7 105 9
14 3 54 7 90 10 58 6 182 21 250 31 14 2 50 7 80 10 30 4 63 9 72 11 9 1 68
10 130 19 89 13 385 66 628 111 92 18 487 103 650 140 107 25 202 47 210 49
292 64 1407 367 1780 484 52 16 165 50 250 76 171 52 241 74 530 165 699 221
1760 574 2710 902 96 33 193 66 215 73 22 7 220 75 440 150 938 320 2025 678
2560 844 361 111 436 134 630 191 116 33 230 67 255 75 25 8 153 44 285 80
233 64 307 84 458 124 39 11 126 34 192 51 513 137 1544 405 1978 515 110 28
166 38 163 30 -2 -7 -38 -66 -79 -131 -164 -264 -474 -795 -641 -1097 -169
-306 -249 -454 -305 -559 -33 -62 -91 -174 -131 -248 -88 -167 -270 -532 -372
-745 -42 -88 -109 -227 -149 -310 -39 -82 -100 -211 -136 -285 -109 -226 -126
-263 -288 -630 -86 -195 -163 -368 -170 -385 -252 -557 -818 -1944 -1150
-2820 -12 -33 -43 -114 -68 -180 -148 -389 -409 -1116 -609 -1695 -87 -252
-435 -1300 -507 -1530 -34 -107 -66 -206 -71 -220 -5 -14 -30 -92 -55 -175
-26 -82 -50 -161 -55 -175 -5 -14 -24 -77 -44 -140 -19 -63 -55 -180 -80 -260
-150 -486 -444 -1507 -536 -1865 -10 -38 -50 -191 -90 -340 -229 -869 -449
-1821 -615 -2667 -36 -185 -67 -345 -69 -355 -27 -132 -47 -240 -50 -270 -4
-32 -17 -119 -41 -283 -3 -19 -10 -62 -15 -95 -5 -33 -12 -80 -15 -105 -3 -25
-17 -121 -30 -215 -26 -178 -50 -398 -60 -550 -3 -49 -8 -103 -10 -120 -2 -16
-7 -75 -10 -130 -4 -55 -9 -103 -12 -107 -6 -12 35 -48 55 -48 11 0 26 8 34
18 13 14 62 257 130 637 6 33 39 188 75 345 35 157 66 294 68 305 18 85 230
951 291 1185 47 178 288 1029 364 1285 42 140 58 196 85 290 14 47 141 478
170 575 40 134 59 193 120 385 37 116 86 269 108 342 23 72 46 129 51 126 5
-4 6 -1 1 6 -4 7 0 31 8 54 9 23 39 116 67 207 112 358 603 1816 750 2225 12
33 43 121 70 195 87 244 257 712 325 895 37 99 109 295 161 435 52 140 99 264
104 275 5 11 43 112 85 225 43 113 106 279 142 370 153 392 226 578 244 617
10 23 19 44 19 47 0 5 239 592 265 651 7 17 34 82 60 145 27 63 57 135 68 160
11 25 21 50 23 55 2 10 276 645 312 725 11 25 82 187 157 360 76 173 150 343
166 378 16 34 29 64 29 67 0 2 25 56 55 120 30 65 55 119 55 121 0 2 24 54 54
116 30 62 131 280 226 483 313 672 834 1705 1128 2235 433 782 1048 1777 1408
2281 l82 115 74 17 c40 9 118 27 173 41 569 137 1274 294 1735 385 228 45 747
142 825 155 17 2 93 16 170 29 77 14 154 28 170 31 46 8 446 74 480 79 17 3
46 8 65 11 19 3 49 8 65 11 202 33 276 45 310 50 22 2 51 7 65 9 14 3 90 14
170 26 80 12 156 23 170 25 14 2 90 13 170 24 80 12 192 28 250 36 106 16 142
21 215 30 64 8 116 15 180 25 33 5 83 12 110 15 28 3 66 8 85 11 19 3 150 20
290 40 140 19 273 37 295 40 73 10 98 13 325 44 124 17 240 33 258 35 17 3 47
7 65 10 17 2 66 9 107 15 41 6 91 12 110 15 37 5 558 81 607 89 15 3 161 25
323 51 324 51 335 53 695 125 590 118 1194 275 1655 432 171 58 470 170 555
208 33 15 62 27 65 28 31 6 373 163 590 270 192 96 222 114 278 170 34 34 62
70 62 78 0 30 -32 43 -102 44 -74 0 -59 3 -608 -110 -503 -103 -689 -139 -980
-189 -476 -83 -549 -94 -1100 -171 -201 -27 -383 -53 -405 -56 -71 -10 -89
-12 -140 -19 -69 -8 -205 -25 -235 -30 -14 -2 -69 -9 -124 -15 -54 -7 -106
-13 -115 -15 -9 -1 -43 -6 -76 -9 -33 -4 -71 -9 -85 -11 -14 -2 -81 -11 -150
-20 -69 -8 -141 -18 -160 -20 -33 -4 -76 -9 -165 -20 -22 -2 -94 -11 -160 -20
-115 -14 -148 -18 -252 -31 -27 -3 -82 -9 -123 -14 -41 -6 -100 -12 -130 -15
-30 -3 -75 -8 -100 -11 -25 -3 -79 -9 -120 -14 -41 -5 -100 -12 -130 -15 -69
-7 -123 -13 -269 -30 -24 -3 -125 -15 -225 -25 -100 -11 -199 -22 -221 -25
-22 -2 -103 -12 -180 -20 -77 -9 -156 -18 -175 -20 -19 -3 -57 -7 -85 -10 -27
-3 -66 -8 -85 -10 -19 -3 -60 -7 -90 -10 -30 -3 -127 -15 -215 -25 -88 -11
-182 -22 -210 -25 -27 -3 -59 -7 -70 -9 -11 -2 -49 -7 -85 -11 -36 -3 -76 -8
-90 -10 -14 -2 -45 -6 -70 -9 -57 -7 -357 -46 -390 -51 -14 -2 -52 -7 -85 -11
-33 -3 -68 -8 -78 -10 -26 -4 -294 -43 -339 -48 -21 -3 -63 -9 -95 -15 -32 -5
-74 -12 -93 -15 -84 -13 -525 -87 -630 -106 -323 -58 -709 -131 -870 -164 -41
-8 -86 -17 -100 -20 -28 -5 -684 -143 -714 -150 -18 -5 -17 -4 1 17 51 58 228
254 242 268 9 9 51 54 94 101 42 47 112 119 155 160 182 175 290 277 332 315
50 44 294 236 380 299 74 54 311 201 385 238 143 73 303 145 345 156 40 10
106 29 205 60 34 10 48 13 190 34 151 22 293 29 705 32 206 2 404 6 440 8 36
3 98 8 138 11 190 16 372 92 465 194 89 99 116 218 69 308 -47 89 -195 209
-344 277 -110 51 -400 108 -683 135 -86 8 -432 11 -485 4z"/>
<path d="M26359 18663 c-13 -16 -12 -17 4 -4 9 7 17 15 17 17 0 8 -8 3 -21
-13z"/>
</g>
</svg>
